<svg id="icon_2" xmlns="http://www.w3.org/2000/svg" width="48.213" height="36.684" viewBox="0 0 48.213 36.684">
  <g id="Group_7699" data-name="Group 7699">
    <path id="Path_5973" data-name="Path 5973" d="M46.611,51.76,27.392,42.371a7.871,7.871,0,0,0-6.13,0L1.6,51.76a2.368,2.368,0,0,0-1.6,2.1c0,.5.221,1.381,1.6,2.1l1.6.773v8.836a2.706,2.706,0,0,0-1.712,2.485,2.742,2.742,0,0,0,1.657,2.485l-2.485,7.9H7.621l-2.485-7.9a2.676,2.676,0,0,0-.055-4.97v-7.9L8.008,59.1V70.592a.891.891,0,0,0,.166.5,20.057,20.057,0,0,0,15.905,7.345,19.943,19.943,0,0,0,15.85-7.345.891.891,0,0,0,.166-.5V59.16l6.517-3.2a2.368,2.368,0,0,0,1.6-2.1A2.469,2.469,0,0,0,46.611,51.76ZM38.327,70.316a18.468,18.468,0,0,1-14.248,6.406A18.468,18.468,0,0,1,9.83,70.316V59.878l11.432,5.467a7.448,7.448,0,0,0,3.037.607,6.725,6.725,0,0,0,3.093-.663l10.935-5.357Zm7.511-15.905-6.627,3.258A.634.634,0,0,0,38.6,58L26.619,63.8a6.132,6.132,0,0,1-4.639,0L7.235,56.73l16.955-1.988a.86.86,0,1,0-.166-1.712L4.363,55.35l-1.988-.939a1.114,1.114,0,0,1-.607-.5c0-.055.11-.276.607-.5l19.661-9.444a5.705,5.705,0,0,1,2.264-.442,5.6,5.6,0,0,1,2.32.442l19.219,9.389c.5.221.607.442.607.552A1.519,1.519,0,0,1,45.838,54.411Z" transform="translate(0 -41.75)" fill="#909090"/>
  </g>
</svg>
