<svg xmlns="http://www.w3.org/2000/svg" width="43.015" height="43" viewBox="0 0 43.015 43">
  <g id="icon_3" transform="translate(-695.135 -663)">
    <path id="icon_3-2" data-name="icon_3" d="M36.718,6.344A21.509,21.509,0,0,0,1.276,28.854a.875.875,0,0,0,1.647-.594,19.758,19.758,0,1,1,32.907,6.9l-.126.134c-.074.079-.148.158-.225.235a19.781,19.781,0,0,1-27.943,0c-.041-.041-.081-.083-.121-.124,0-.081,0-.16,0-.239q0-.264.01-.527c0-.059.007-.116.009-.175.006-.116.011-.233.02-.348.005-.069.013-.137.019-.206.009-.1.018-.209.029-.312.008-.073.019-.146.028-.219.012-.1.024-.2.039-.3.011-.075.024-.149.036-.223.016-.1.031-.191.048-.286.014-.075.03-.15.045-.224.019-.093.037-.187.058-.279.017-.075.035-.15.053-.225.022-.091.044-.182.067-.273.02-.075.041-.149.062-.224s.05-.179.076-.267.046-.148.07-.222.056-.176.086-.262.051-.146.078-.219.062-.173.095-.259.056-.144.085-.216.068-.17.1-.254.062-.142.093-.213.074-.166.113-.249.066-.14.1-.21.08-.164.122-.245.071-.137.107-.2.087-.161.131-.241.075-.134.114-.2.092-.157.14-.236.08-.131.121-.2.1-.154.148-.231.084-.128.127-.191.1-.151.157-.226.088-.124.134-.186.11-.148.166-.22.092-.121.14-.18.116-.144.175-.216.1-.117.145-.174.122-.141.184-.211.1-.113.15-.168.128-.137.193-.2.1-.109.156-.162.134-.133.2-.2.106-.1.16-.155c.07-.066.141-.13.212-.195.054-.049.108-.1.163-.147.073-.065.149-.127.224-.191.055-.046.109-.093.165-.139.077-.063.157-.125.236-.187.055-.043.109-.087.165-.129.083-.063.168-.124.253-.185.054-.039.106-.078.16-.117.094-.066.19-.129.285-.193.047-.031.093-.064.141-.095.125-.081.251-.159.379-.237l.059-.037q.221-.133.449-.258c.052-.028.105-.055.157-.083.1-.054.2-.108.3-.159.066-.033.133-.064.2-.1.083-.04.167-.081.251-.12a8.52,8.52,0,0,0,11.8,0,14.256,14.256,0,0,1,7.009,7.134.875.875,0,1,0,1.6-.705,15.783,15.783,0,0,0-7.444-7.806A8.541,8.541,0,0,0,21.508,7.632a.875.875,0,1,0,0,1.751,6.791,6.791,0,0,1,5.046,11.347h0a6.774,6.774,0,0,1-10.092,0h0a6.784,6.784,0,0,1,.264-9.38A.875.875,0,0,0,15.494,10.1a8.533,8.533,0,0,0-1.057,10.875l-.025.013c-.068.034-.135.07-.2.105-.1.054-.208.107-.31.163-.072.039-.143.081-.215.121-.1.054-.191.108-.286.164-.073.043-.145.088-.217.133-.09.056-.181.111-.27.169-.073.047-.144.095-.216.143s-.173.116-.258.175-.142.1-.213.152-.166.12-.248.182-.139.106-.209.16-.16.125-.239.189l-.2.167q-.116.1-.231.2-.1.086-.2.174-.113.1-.223.2c-.064.059-.127.119-.19.179s-.144.142-.216.213-.122.122-.182.184-.14.148-.21.223-.116.125-.173.188-.137.156-.2.234c-.054.063-.109.125-.163.189-.069.082-.135.166-.2.249-.05.062-.1.123-.149.186-.07.09-.138.183-.207.275-.043.058-.087.115-.129.173-.086.12-.17.241-.253.363-.022.032-.045.063-.066.1q-.155.231-.3.467c-.034.054-.065.11-.1.165-.063.1-.127.21-.187.316-.038.066-.074.134-.111.2-.053.1-.107.192-.158.29-.038.072-.074.145-.111.218-.048.094-.1.188-.141.283-.036.076-.071.152-.106.228-.043.094-.087.187-.128.282-.034.078-.067.157-.1.235-.04.094-.079.189-.116.284-.032.08-.062.16-.092.241-.036.1-.071.191-.105.287s-.057.164-.085.246-.064.193-.095.291-.051.166-.076.249q-.044.147-.085.3-.035.125-.067.251c-.026.1-.05.2-.074.3-.02.084-.04.168-.058.252-.022.1-.043.2-.064.307-.017.084-.034.168-.049.253-.019.1-.036.21-.053.316-.013.083-.028.166-.04.25-.016.109-.029.218-.043.328-.01.081-.021.162-.03.244-.013.115-.022.23-.032.346-.007.077-.015.153-.02.231-.009.129-.015.258-.022.388,0,.064-.008.128-.01.193q-.011.292-.011.585c0,.211.007.411.016.632a.894.894,0,0,0,.019.149l0,.011a.863.863,0,0,0,.044.138l.005.013a.871.871,0,0,0,.067.125l.009.015a.891.891,0,0,0,.087.11l.006.008.116.123c.087.093.175.186.266.277a21.534,21.534,0,0,0,30.42,0c.091-.091.178-.184.266-.277l.116-.123a21.507,21.507,0,0,0-.381-30.02Z" transform="translate(695.135 662.946)" fill="#909090"/>
  </g>
</svg>
