<svg id="icon_1" xmlns="http://www.w3.org/2000/svg" width="43" height="43" viewBox="0 0 43 43">
  <path id="Path_5971" data-name="Path 5971" d="M42.929,16.645a.84.84,0,0,0-.465-.444l-3.418-1.327,1.965-5.061a.84.84,0,0,0-.479-1.087L35.273,6.684V4.2a4.2,4.2,0,0,0-4.2-4.2H.84A.84.84,0,0,0,0,.84V42.16A.84.84,0,0,0,.84,43H31.074a4.2,4.2,0,0,0,4.2-4.2V37.637a.84.84,0,0,0-1.68,0h0V38.8a2.529,2.529,0,0,1-2.52,2.52H5.039V1.68H31.074a2.529,2.529,0,0,1,2.52,2.52V30.078a.84.84,0,0,0,1.68,0V29.006l1.928.749a.839.839,0,0,0,1.087-.479l4.655-11.988a.84.84,0,0,0-.014-.643ZM3.359,41.32H1.68V1.68h1.68ZM35.273,8.486l3.868,1.5-1.661,4.278-2.207-.857Zm1.753,19.4L35.273,27.2V15.211l5.8,2.252Z" transform="translate(0 0)" fill="#909090"/>
  <circle id="Ellipse_1173" data-name="Ellipse 1173" cx="0.84" cy="0.84" r="0.84" transform="translate(33.594 33.018)" fill="#909090"/>
  <path id="Path_5972" data-name="Path 5972" d="M128.675,162.789h9.889a.84.84,0,0,0,.84-.84V154.69a3.894,3.894,0,1,0-3.344-6.8,3.888,3.888,0,0,0-4.945,0,3.894,3.894,0,1,0-3.281,6.818v7.244A.84.84,0,0,0,128.675,162.789Zm-2.247-11.894a2.215,2.215,0,0,1,4.008-1.3.84.84,0,0,0,1.359,0,2.214,2.214,0,0,1,3.586,0,.84.84,0,0,0,1.359,0,2.215,2.215,0,1,1,1.816,3.514h-1.377a.84.84,0,1,0,0,1.68h.546v6.32h-8.21v-6.32h.546a.84.84,0,1,0,0-1.68h-1.426A2.218,2.218,0,0,1,126.429,150.895Z" transform="translate(-114.272 -134.654)" fill="#909090"/>
</svg>
